<svg height="512pt" viewBox="0 0 512 512.01069" width="512pt" xmlns="http://www.w3.org/2000/svg"><path d="m317.445312 386.058594h-276.480468c-25.425782-20.480469-30.546875-58.964844-15.359375-90.367188 17.066406-35.328125 8.535156-79.53125 8.535156-79.53125h290.132813s-8.535157 44.203125 8.53125 79.53125c15.191406 31.402344 10.070312 69.886719-15.359376 90.367188zm0 0" fill="#783e22"/><path d="m293.808594 386.058594h-252.84375c-25.425782-20.480469-30.546875-58.964844-15.359375-90.367188 17.066406-35.328125 8.535156-79.53125 8.535156-79.53125h266.496094s-8.535157 44.203125 8.53125 79.53125c15.191406 31.402344 10.070312 69.886719-15.359375 90.367188zm0 0" fill="#a0522d"/><path d="m327.601562 396.980469-21.589843 106.496093h-280.40625c-9.414063-.027343-17.039063-7.652343-17.066407-17.066406v-25.597656c-.011718-50.304688 36.519532-93.164062 86.1875-101.121094h168.960938c25.203125 4.035156 47.996094 17.335938 63.914062 37.289063zm0 0" fill="#3f51b5"/><path d="m204.804688 313.441406v56.320313c-13.226563 23.636719-25.597657 48.382812-25.597657 48.382812s-12.375-24.746093-25.601562-48.382812v-56.320313zm0 0" fill="#ffe0b2"/><path d="m76.804688 469.34375c18.339843-6.582031 28.921874-25.78125 24.6875-44.800781-10.222657-.484375-19.511719-6.101563-24.6875-14.933594-5.171876 8.832031-14.460938 14.449219-24.683594 14.933594-4.230469 19.019531 6.347656 38.21875 24.683594 44.800781zm0 0" fill="#ffdc00"/><path d="m500.402344 153.523438-143.789063 261.890624-18.515625-9.472656-11.863281-6.144531 129.878906-269.140625c2.238281-4.71875 5.953125-8.582031 10.582031-11.007812 7.191407-3.992188 15.902344-4.121094 23.210938-.339844l.085938.082031c5.972656 3.082031 10.445312 8.441406 12.40625 14.871094 1.960937 6.429687 1.242187 13.375-1.996094 19.261719zm0 0" fill="#707070"/><path d="m476.765625 153.523438-138.667969 252.417968-11.863281-6.144531 129.878906-269.140625c2.238281-4.71875 5.953125-8.582031 10.582031-11.007812 5.839844 3.140624 10.1875 8.484374 12.078126 14.84375 1.890624 6.359374 1.167968 13.210937-2.007813 19.03125zm0 0" fill="#9e9e9e"/><path d="m326.246094 399.777344 30.34375 15.632812-42.996094 83.441406c-2.160156 4.1875-7.304688 5.835938-11.496094 3.675782l-15.167968-7.816406c-4.191407-2.160157-5.835938-7.304688-3.679688-11.496094zm0 0" fill="#7f8e94"/><path d="m325.980469 187.828125c3.914062.398437 7.566406 2.148437 10.324219 4.949219 3.242187 3.164062 5.058593 7.503906 5.035156 12.035156-.027344 9.414062-7.652344 17.039062-17.066406 17.066406h-290.132813c-9.414063-.027344-17.039063-7.652344-17.066406-17.066406-.023438-4.53125 1.792969-8.871094 5.035156-12.035156 2.757813-2.800782 6.410156-4.550782 10.324219-4.949219zm0 0" fill="#dfc49c"/><path d="m307.207031 198.753906c-.011719 4.046875-.242187 8.089844-.683593 12.117188-.425782 3.667968-1.023438 7.335937-1.792969 10.921875-11.6875 53.589843-63.402344 93.949219-125.523438 93.949219-3.925781 0-7.765625-.167969-11.605469-.511719-60.84375-4.949219-109.484374-48.894531-115.710937-104.359375-.445313-4.027344-.671875-8.070313-.683594-12.117188v-2.476562c.085938-1.367188.085938-2.730469.171875-4.097656l116.050782-58.109376 11.777343-5.890624 127.828125 64c.085938 2.136718.171875 4.355468.171875 6.574218zm0 0" fill="#dfc49c"/><path d="m283.570312 198.753906c-.011718 4.046875-.242187 8.089844-.683593 12.117188-.425781 3.667968-1.023438 7.335937-1.792969 10.921875-10.921875 50.089843-56.832031 88.660156-113.492188 93.4375-60.84375-4.949219-109.484374-48.894531-115.710937-104.359375-.445313-4.027344-.671875-8.070313-.683594-12.117188v-2.476562c.085938-1.367188.085938-2.730469.171875-4.097656l116.050782-58.109376 115.96875 58.109376c.085937 2.136718.171874 4.355468.171874 6.574218zm0 0" fill="#ffe0b2"/><path d="m324.273438 68.277344v76.800781h-290.132813v-76.800781c-.011719-15.847656 6.277344-31.046875 17.480469-42.25 11.207031-11.207032 26.40625-17.496094 42.253906-17.484375h170.664062c15.847657-.011719 31.046876 6.277343 42.25 17.484375 11.207032 11.203125 17.496094 26.402344 17.484376 42.25zm0 0" fill="#283593"/><path d="m300.636719 68.277344v76.800781h-266.496094v-76.800781c-.011719-15.847656 6.277344-31.046875 17.480469-42.25 11.207031-11.207032 26.40625-17.496094 42.253906-17.484375h147.027344c15.847656-.011719 31.046875 6.277343 42.25 17.484375 11.207031 11.203125 17.496094 26.402344 17.484375 42.25zm0 0" fill="#3f51b5"/><path d="m229.382812 45.492188c-37.632812 0-50.175781-36.949219-50.175781-36.949219s-12.542969 36.949219-50.175781 36.949219c0 0-12.542969 61.695312 50.175781 73.984374 62.71875-12.289062 50.175781-73.984374 50.175781-73.984374zm0 0" fill="#ffdc00"/><path d="m179.207031 418.144531c0 25.597657-34.132812 42.667969-34.132812 42.667969-7.765625-39-44.117188-92.246094-50.347657-101.121094-.257812-.445312-.542968-.871094-.851562-1.28125 11.746094-10.566406 26.867188-16.617187 42.664062-17.066406 3.328126 4.949219 6.914063 10.835938 10.496094 17.066406 2.21875 3.667969 4.351563 7.511719 6.570313 11.351563 13.226562 23.636719 25.601562 48.382812 25.601562 48.382812zm0 0" fill="#f5f5f5"/><path d="m264.539062 358.410156s-42.664062 59.734375-51.199218 102.402344c0 0-34.132813-17.070312-34.132813-42.667969 0 0 12.371094-24.746093 25.597657-48.382812 5.890624-10.414063 11.863281-20.566407 17.070312-28.417969 15.792969.449219 30.917969 6.5 42.664062 17.066406zm0 0" fill="#f5f5f5"/><path d="m325.980469 187.828125c-5.429688 4.039063-12.300781 5.617187-18.945313 4.351563-2.992187-.398438-5.957031-.996094-8.875-1.789063-2.472656-.683594-5.117187-1.621094-8.019531-2.648437-68.265625-25.597657-110.933594-25.597657-110.933594-25.597657s-4.097656 0-11.691406.765625h-.253906c-33.917969 4.042969-67.179688 12.386719-98.988281 24.832032-5.445313 2.121093-11.113282 3.609374-16.894532 4.4375-4.992187.78125-10.105468.160156-14.765625-1.789063-1.507812-.648437-2.917969-1.511719-4.179687-2.5625-20.90625-17.152344 1.707031-42.75 1.707031-42.75s46.933594-23.46875 133.289063-25.429687c3.839843-.085938 7.765624-.171876 11.777343-.171876 93.867188 0 145.066407 25.601563 145.066407 25.601563s22.613281 25.597656 1.707031 42.75zm0 0" fill="#283593"/><path d="m302.34375 187.828125c-1.277344 1.03125-2.683594 1.894531-4.183594 2.5625-4.660156 1.949219-9.769531 2.570313-14.761718 1.789063-5.78125-.828126-11.453126-2.316407-16.894532-4.4375-31.808594-12.445313-65.070312-20.789063-98.988281-24.832032h-.253906c-7.597657-.765625-11.691407-.765625-11.691407-.765625s-42.667968 0-110.933593 25.597657c-2.902344 1.027343-5.546875 1.964843-8.023438 2.648437-1.507812-.648437-2.917969-1.511719-4.179687-2.5625-20.90625-17.152344 1.707031-42.75 1.707031-42.75s46.933594-23.46875 133.289063-25.429687c86.359374 1.960937 133.207031 25.429687 133.207031 25.429687s22.613281 25.597656 1.707031 42.75zm0 0" fill="#3f51b5"/><path d="m179.207031 324.277344c-70.175781 0-128.558593-48.339844-135.800781-112.449219-.472656-4.34375-.71875-8.707031-.734375-13.074219 0-2.335937.085937-4.664062.175781-6.90625.238282-4.683594 4.171875-8.320312 8.859375-8.191406 4.707031.183594 8.375 4.152344 8.191407 8.859375-.074219 2.023437-.160157 4.128906-.160157 6.238281.015625 3.746094.226563 7.488282.632813 11.214844 6.261718 55.414062 57.351562 97.242188 118.835937 97.242188 56.875 0 106.152344-36.6875 117.191407-87.238282.699218-3.285156 1.257812-6.683594 1.648437-10.085937.40625-3.699219.613281-7.414063.625-11.132813 0-2.109375-.085937-4.214844-.15625-6.238281-.183594-4.710937 3.484375-8.675781 8.191406-8.859375 4.710938-.1875 8.679688 3.484375 8.863281 8.191406.089844 2.242188.167969 4.570313.167969 6.90625-.011719 4.347656-.257812 8.691406-.730469 13.015625-.46875 4.019531-1.113281 7.957031-1.933593 11.808594-12.734375 58.363281-69.027344 100.699219-133.867188 100.699219zm0 0"/><path d="m51.890625 230.410156h-17.75c-14.132813-.015625-25.585937-11.46875-25.601563-25.597656-.039062-6.835938 2.710938-13.390625 7.617188-18.148438 4.121094-4.148437 9.550781-6.734374 15.367188-7.320312 4.632812-.410156 8.742187 2.96875 9.234374 7.59375.496094 4.625-2.804687 8.792969-7.417968 9.375-4.351563.480469-7.664063 4.121094-7.734375 8.5.003906 4.710938 3.824219 8.527344 8.535156 8.53125h17.75c4.710937 0 8.53125 3.820312 8.53125 8.535156 0 4.710938-3.820313 8.53125-8.53125 8.53125zm0 0"/><path d="m324.273438 230.410156h-17.75c-4.710938 0-8.53125-3.820312-8.53125-8.53125 0-4.714844 3.820312-8.535156 8.53125-8.535156h17.75c4.710937-.003906 8.527343-3.820312 8.53125-8.53125.023437-2.226562-.863282-4.363281-2.449219-5.921875-1.398438-1.457031-3.273438-2.371094-5.28125-2.578125-4.617188-.582031-7.914063-4.75-7.421875-9.375.496094-4.625 4.605468-8.003906 9.238281-7.59375 5.894531.609375 11.390625 3.257812 15.539063 7.488281 4.8125 4.738281 7.496093 11.226563 7.445312 17.980469-.015625 14.128906-11.46875 25.582031-25.601562 25.597656zm0 0"/><path d="m153.605469 378.292969c-4.710938 0-8.53125-3.820313-8.53125-8.53125v-56.320313c0-4.714844 3.820312-8.535156 8.53125-8.535156 4.714843 0 8.535156 3.820312 8.535156 8.535156v56.320313c0 4.710937-3.820313 8.53125-8.535156 8.53125zm0 0"/><path d="m204.804688 378.292969c-4.710938 0-8.53125-3.820313-8.53125-8.53125v-56.320313c0-4.714844 3.820312-8.535156 8.53125-8.535156 4.714843 0 8.535156 3.820312 8.535156 8.535156v56.320313c0 4.710937-3.820313 8.53125-8.535156 8.53125zm0 0"/><path d="m327.605469 405.515625c-2.597657.003906-5.054688-1.179687-6.675781-3.210937-14.566407-18.316407-35.46875-30.515626-58.582032-34.1875-4.65625-.738282-7.828125-5.113282-7.085937-9.769532.738281-4.65625 5.113281-7.828125 9.769531-7.085937 27.316406 4.335937 52.015625 18.75 69.234375 40.398437 2.046875 2.558594 2.445313 6.066406 1.027344 9.019532-1.421875 2.953124-4.40625 4.832031-7.683594 4.835937zm0 0"/><path d="m306.011719 512.011719h-280.40625c-14.132813-.015625-25.5820315-11.46875-25.5976565-25.601563v-25.597656c-.2539065-54.585938 39.4374995-101.152344 93.3749995-109.550781 4.652344-.742188 9.027344 2.429687 9.769532 7.085937.742187 4.65625-2.433594 9.03125-7.085938 9.769532-45.636718 7.105468-79.214844 46.511718-78.992187 92.695312v25.597656c.003906 4.710938 3.820312 8.53125 8.53125 8.535156h280.40625c4.714843 0 8.535156 3.820313 8.535156 8.53125 0 4.714844-3.820313 8.535157-8.535156 8.535157zm0 0"/><path d="m324.273438 153.609375c-4.714844 0-8.535157-3.820313-8.535157-8.53125v-76.800781c-.03125-28.265625-22.933593-51.167969-51.199219-51.199219h-170.664062c-28.265625.03125-51.171875 22.933594-51.203125 51.199219v76.800781c0 4.710937-3.820313 8.53125-8.53125 8.53125-4.714844 0-8.535156-3.820313-8.535156-8.53125v-76.800781c.042969-37.683594 30.582031-68.2226565 68.269531-68.2656252h170.664062c37.683594.0429687 68.222657 30.5820312 68.265626 68.2656252v76.800781c0 4.710937-3.820313 8.53125-8.53125 8.53125zm0 0"/><path d="m311.480469 200.96875c-1.796875 0-3.589844-.101562-5.375-.300781-6.472657-.90625-12.820313-2.554688-18.917969-4.914063-65.765625-24.664062-107.582031-25.078125-107.996094-25.078125-.386718 0-42.203125.414063-107.917968 25.058594-6.078126 2.359375-12.410157 4.007813-18.867188 4.917969-8.996094 1.558594-18.230469-.722656-25.46875-6.292969-6.773438-5.285156-11.046875-13.144531-11.804688-21.703125.003907-12.246094 4.492188-24.066406 12.617188-33.230469.722656-.816406 1.597656-1.492187 2.574219-1.980469 2.164062-1.082031 54.089843-26.5 148.882812-26.5s146.714844 25.417969 148.882813 26.5c.976562.488282 1.851562 1.164063 2.574218 1.980469 8.125 9.164063 12.613282 20.984375 12.617188 33.230469-.765625 8.59375-5.074219 16.480469-11.890625 21.765625-5.632813 4.507813-12.703125 6.832031-19.910156 6.546875zm-132.273438-47.359375c1.808594 0 45.007813.296875 113.933594 26.144531 4.808594 1.882813 9.820313 3.210938 14.933594 3.957032 4.292969.910156 8.777343.039062 12.414062-2.417969 3.25-2.347657 5.351563-5.964844 5.777344-9.953125-.257813-7.082032-2.84375-13.878906-7.359375-19.34375-9.15625-4.070313-58.140625-23.984375-139.699219-23.984375-81.925781 0-130.601562 19.902343-139.691406 23.976562-4.519531 5.460938-7.109375 12.265625-7.367187 19.351563.414062 3.953125 2.484374 7.546875 5.691406 9.890625 3.691406 2.5 8.242187 3.390625 12.601562 2.46875 5.09375-.753907 10.085938-2.085938 14.882813-3.964844 68.875-25.828125 112.074219-26.125 113.882812-26.125zm0 0"/><path d="m179.207031 128.011719c-.550781 0-1.101562-.054688-1.640625-.160157-18.800781-2.757812-35.644531-13.113281-46.585937-28.648437-10.03125-16.601563-13.695313-36.28125-10.308594-55.382813.808594-3.976562 4.304687-6.835937 8.363281-6.832031 31.160156 0 41.992188-30.875 42.09375-31.1875 1.171875-3.46875 4.421875-5.800781 8.082032-5.800781 3.660156 0 6.910156 2.332031 8.082031 5.800781.433593 1.242188 11.210937 31.1875 42.09375 31.1875 4.058593-.003906 7.554687 2.855469 8.363281 6.832031 3.386719 19.101563-.277344 38.78125-10.308594 55.382813-10.941406 15.535156-27.785156 25.890625-46.585937 28.648437-.542969.105469-1.09375.160157-1.648438.160157zm-42.527343-74.425781c-.496094 7.585937.277343 15.207031 2.292968 22.535156 5.398438 18.476562 21.160156 32.050781 40.234375 34.644531 13.6875-2.210937 25.929688-9.777344 34.023438-21.03125 6.613281-10.835937 9.597656-23.496094 8.527343-36.144531-17.359374-2.441406-32.847656-12.191406-42.550781-26.792969-9.699219 14.59375-25.175781 24.339844-42.527343 26.789063zm0 0"/><path d="m145.074219 469.34375c-4.066407-.003906-7.566407-2.878906-8.363281-6.867188-7.617188-38.210937-44.757813-91.886718-48.96875-97.882812l6.269531-6.007812-6.910157 5.015624c-2.503906-3.425781-2.191406-8.15625.742188-11.222656 13.347656-12.171875 30.636719-19.121094 48.695312-19.566406 2.84375 0 5.5 1.414062 7.082032 3.773438 3.203125 4.761718 6.835937 10.671874 10.808594 17.5625 1.476562 2.4375 2.992187 5.097656 4.535156 7.792968l2.03125 3.554688c13.226562 23.636718 25.71875 48.582031 25.84375 48.832031.589844 1.183594.898437 2.492187.898437 3.816406 0 30.523438-37.265625 49.503907-38.847656 50.300781-1.1875.589844-2.492187.898438-3.816406.898438zm-39.824219-109.398438c18.910156 27.027344 34.121094 56.457032 45.230469 87.511719 8.734375-6.296875 19.050781-16.296875 20.101562-27.460937-3.175781-6.296875-13.574219-26.679688-24.425781-46.070313l-2.015625-3.527343c-1.46875-2.570313-2.917969-5.113282-4.410156-7.578126-2.75-4.773437-5.28125-8.976562-7.59375-12.605468-9.617188 1.027344-18.84375 4.363281-26.886719 9.730468zm0 0"/><path d="m213.339844 469.34375c-1.324219 0-2.632813-.308594-3.816406-.898438-1.582032-.796874-38.851563-19.777343-38.851563-50.300781 0-1.324219.308594-2.632812.902344-3.816406 1.058593-2.109375 26.03125-51.96875 43.199219-77.71875 1.582031-2.371094 4.246093-3.796875 7.101562-3.796875 18.058594.445312 35.347656 7.394531 48.699219 19.566406 2.945312 2.949219 3.332031 7.597656.90625 10.992188-.414063.582031-41.699219 58.761718-49.773438 99.113281-.796875 3.992187-4.300781 6.863281-8.367187 6.859375zm-25.515625-49.339844c1.066406 11.664063 11.933593 21.539063 20.132812 27.410156 11.15625-31.019531 26.347657-60.4375 45.175781-87.5-8.015624-5.386718-17.234374-8.722656-26.839843-9.714843-14.527344 22.835937-33.910157 60.792969-38.46875 69.804687zm0 0"/><path d="m179.207031 512.011719c-4.714843 0-8.535156-3.820313-8.535156-8.535157v-85.332031c0-4.714843 3.820313-8.535156 8.535156-8.535156 4.710938 0 8.53125 3.820313 8.53125 8.535156v85.332031c0 4.714844-3.820312 8.535157-8.53125 8.535157zm0 0"/><path d="m76.804688 477.878906c-1.214844 0-2.417969-.261718-3.523438-.765625-22.179688-8.300781-34.753906-31.769531-29.382812-54.835937 1.015624-3.703125 4.382812-6.269532 8.222656-6.265625 7.117187-.472657 13.546875-4.402344 17.210937-10.515625 1.628907-2.550782 4.449219-4.09375 7.472657-4.09375 3.027343 0 5.847656 1.542968 7.476562 4.09375 3.636719 6.140625 10.082031 10.078125 17.207031 10.515625 3.84375-.003907 7.210938 2.5625 8.226563 6.265625 5.371094 23.066406-7.203125 46.535156-29.382813 54.835937-1.109375.503907-2.308593.765625-3.527343.765625zm-17.148438-45.613281c-.253906 11.769531 6.476562 22.578125 17.148438 27.546875 10.671874-4.972656 17.402343-15.777344 17.160156-27.546875-6.453125-1.5-12.378906-4.707031-17.160156-9.292969-4.777344 4.582032-10.703126 7.792969-17.148438 9.292969zm0 0"/><path d="m356.582031 423.945312c-1.359375 0-2.695312-.324218-3.902343-.945312l-30.339844-15.632812c-4.109375-2.121094-5.78125-7.128907-3.773438-11.296876l129.824219-269.121093c5.300781-10.933594 16.113281-18.132813 28.242187-18.8125 12.132813-.679688 23.679688 5.273437 30.167969 15.546875 6.484375 10.273437 6.894531 23.257812 1.066407 33.917968l-143.792969 261.917969c-1.503907 2.730469-4.375 4.429688-7.492188 4.425781zm-19.03125-27.945312 15.558594 8.023438 139.800781-254.636719c2.878906-5.226563 2.691406-11.605469-.492187-16.652344-3.179688-5.050781-8.851563-7.972656-14.8125-7.632813-5.957031.339844-11.257813 3.890626-13.84375 9.265626zm0 0"/><path d="m402.089844 447.394531c-1.355469 0-2.695313-.324219-3.898438-.945312l-91.027344-46.90625c-4.191406-2.160157-5.835937-7.308594-3.679687-11.496094 2.160156-4.191406 7.304687-5.839844 11.496094-3.679687l91.027343 46.902343c3.503907 1.804688 5.316407 5.773438 4.386719 9.601563-.933593 3.832031-4.363281 6.523437-8.304687 6.519531zm0 0"/><path d="m305.972656 512.011719c-2.707031 0-5.375-.648438-7.78125-1.894531v-.003907l-15.167968-7.816406c-4.027344-2.070313-7.0625-5.65625-8.445313-9.96875-1.378906-4.308594-.988281-8.992187 1.085937-13.015625l43-83.441406c2.160157-4.1875 7.304688-5.835938 11.492188-3.679688l30.34375 15.636719c4.1875 2.160156 5.832031 7.304687 3.671875 11.496094l-43 83.4375c-2.933594 5.683593-8.800781 9.253906-15.199219 9.25zm.035156-17.066407h.003907l39.082031-75.855468-15.175781-7.820313-39.089844 75.855469zm0 0"/><path d="m40.972656 394.59375c-1.894531 0-3.738281-.632812-5.234375-1.800781-27.824219-21.660157-35.289062-62.847657-17.75-97.933594 15.511719-31.011719 7.875-70.917969 7.800781-71.320313-.808593-4.570312 2.183594-8.945312 6.734376-9.855468 4.550781-.90625 8.992187 1.988281 10 6.519531.375 1.863281 8.898437 45.957031-9.265626 82.292969-13.917968 27.832031-8.46875 60.144531 12.96875 76.832031 2.878907 2.238281 4.011719 6.058594 2.828126 9.507813-1.1875 3.445312-4.429688 5.761718-8.078126 5.757812zm0 0"/><path d="m317.464844 394.59375c-3.644532 0-6.890625-2.3125-8.078125-5.761719-1.183594-3.445312-.046875-7.265625 2.828125-9.507812 21.433594-16.683594 26.890625-49 12.96875-76.832031-18.164063-36.332032-9.640625-80.429688-9.265625-82.292969 1.007812-4.527344 5.449219-7.421875 10-6.515625s7.542969 5.285156 6.734375 9.855468c-.074219.398438-7.707032 40.308594 7.800781 71.320313 17.53125 35.085937 10.070313 76.269531-17.757813 97.933594-1.496093 1.167969-3.335937 1.800781-5.230468 1.800781zm0 0"/></svg>